<?xml version="1.0" encoding="utf-8"?>
<!-- Generator: Adobe Illustrator 16.0.0, SVG Export Plug-In . SVG Version: 6.00 Build 0)  -->
<!DOCTYPE svg PUBLIC "-//W3C//DTD SVG 1.1//EN" "http://www.w3.org/Graphics/SVG/1.1/DTD/svg11.dtd">
<svg version="1.1" id="Layer_1" xmlns="http://www.w3.org/2000/svg" xmlns:xlink="http://www.w3.org/1999/xlink" x="0px" y="0px"
	 width="126px" height="126px" viewBox="0 0 126 126"  xml:space="preserve">
<path stroke="#FFFFFF" fill="#FFFFFF" stroke-width="0" stroke-linecap="round" stroke-linejoin="round" d="M25.486,25.482
	C4.798,46.17,4.8,79.828,25.488,100.516c20.682,20.686,54.341,20.686,75.027-0.004c20.686-20.684,20.684-54.34,0.002-75.023
	C79.829,4.799,46.17,4.799,25.486,25.482z M94.728,94.727c-17.494,17.494-45.961,17.496-63.455,0.004
	c-17.498-17.498-17.496-45.967,0-63.461c17.494-17.492,45.959-17.494,63.457,0.002C112.224,48.766,112.222,77.234,94.728,94.727z
	 M43.211,48.641c0-3.424,2.777-6.201,6.201-6.201c3.423,0,6.2,2.777,6.2,6.201c0,3.426-2.777,6.203-6.2,6.203
	C45.988,54.844,43.211,52.066,43.211,48.641z M83.731,48.641c0,3.426-2.777,6.203-6.201,6.203c-3.423,0-6.203-2.777-6.203-6.203
	c0-3.424,2.78-6.201,6.203-6.201C80.954,42.439,83.731,45.217,83.731,48.641z M63.06,88.668c-9.08,4.867-19.354-5.771-23.064-14.703
	c-0.636-1.529,0.089-3.285,1.62-3.922c0.376-0.156,0.766-0.23,1.15-0.23c1.176,0.002,2.292,0.697,2.771,1.852
	c2.777,6.684,7.463,7.92,18.523,10.004C64.06,81.668,73.25,83.207,63.06,88.668z"/>
</svg>
